<svg xmlns="http://www.w3.org/2000/svg" xmlns:xlink="http://www.w3.org/1999/xlink" width="1440" zoomAndPan="magnify" viewBox="0 0 1080 250.499992" height="334" preserveAspectRatio="xMidYMid meet" version="1.0"><defs><g/><clipPath id="3d0cbc0774"><path d="M 10.90625 33.632812 L 193.621094 33.632812 L 193.621094 216.347656 L 10.90625 216.347656 Z M 10.90625 33.632812 " clip-rule="nonzero"/></clipPath><clipPath id="b18d07f06e"><path d="M 239 72.695312 L 659 72.695312 L 659 175 L 239 175 Z M 239 72.695312 " clip-rule="nonzero"/></clipPath></defs><g clip-path="url(#3d0cbc0774)"><path fill="#6775f5" d="M 102.257812 204.40625 C 94.121094 204.40625 86.269531 203.160156 78.875 200.871094 C 77.910156 200.574219 77.308594 199.558594 77.570312 198.585938 C 78.0625 196.765625 79.289062 195.183594 81.066406 194.378906 C 86.695312 191.835938 89.691406 200.171875 95.277344 196.375 C 95.890625 195.960938 96.421875 195.433594 96.890625 194.863281 C 98.640625 192.726562 100.207031 190.4375 101.570312 188.03125 C 104.210938 183.363281 101.746094 177.375 96.5625 175.988281 C 94.09375 175.332031 91.507812 174.828125 89.15625 173.980469 C 88.101562 173.601562 87.039062 173.109375 86.292969 172.269531 C 83.910156 169.574219 85.980469 165.277344 85.097656 161.785156 C 83.890625 157.011719 77.691406 155.175781 73.726562 153.585938 C 72.207031 152.972656 70.59375 152.652344 68.960938 152.609375 C 65.152344 152.515625 62.847656 156.789062 65.019531 159.917969 L 70.613281 167.976562 C 71.765625 169.640625 71.128906 172.019531 69.234375 172.730469 C 66.792969 173.644531 63.769531 173.4375 61.199219 172.640625 C 57.34375 171.445312 53.757812 169.242188 49.746094 168.808594 C 48.421875 168.667969 46.980469 168.746094 46.167969 170.332031 C 45.710938 171.226562 45.675781 172.292969 45.984375 173.246094 C 46.644531 175.28125 48.386719 176.597656 49.863281 178.066406 C 51.980469 180.164062 53.722656 183.015625 53.296875 185.964844 C 53.234375 186.378906 53.109375 186.78125 52.9375 187.167969 C 34.621094 172.605469 22.847656 150.15625 22.847656 124.996094 C 22.847656 97 37.574219 71.332031 61.101562 57.0625 C 62.632812 56.132812 64.5 57.585938 63.964844 59.296875 C 62.75 63.171875 61.539062 67.050781 60.328125 70.929688 C 59.234375 74.410156 62.089844 77.921875 65.710938 77.476562 C 77.378906 76.03125 90.390625 83.742188 92.886719 95.539062 C 93.863281 100.15625 93.464844 105.089844 96.449219 109.167969 C 97.792969 111.007812 99.902344 112.230469 102.179688 112.132812 C 107.332031 111.894531 108.785156 105.996094 111.6875 101.917969 C 113.449219 99.441406 112.761719 95.988281 110.117188 94.503906 C 108.546875 93.621094 106.914062 92.785156 105.542969 91.652344 C 102.425781 89.113281 101.96875 82.609375 105.988281 82.238281 C 113.328125 84.296875 122.066406 91.125 120.648438 99.820312 C 120.515625 100.636719 120.296875 101.449219 120.371094 102.269531 C 120.519531 103.941406 121.835938 105.238281 123.070312 106.375 C 123.320312 106.609375 123.585938 106.851562 123.917969 106.941406 C 124.679688 107.15625 125.433594 106.492188 125.722656 105.757812 C 126.007812 105.019531 126 104.203125 126.21875 103.445312 C 127.066406 100.511719 131.167969 99.625 133.839844 101.101562 C 136.511719 102.582031 137.964844 105.558594 138.953125 108.449219 C 139.851562 111.085938 140.46875 114.125 139.105469 116.558594 C 136.511719 121.191406 128.488281 120.808594 126.621094 125.78125 C 126.414062 126.332031 126.3125 126.976562 126.589844 127.5 C 126.925781 128.132812 127.6875 128.378906 128.277344 128.785156 C 129.132812 129.371094 129.671875 130.386719 129.6875 131.417969 C 129.71875 134.285156 125.996094 135.824219 123.238281 135.050781 C 120.480469 134.277344 118.347656 132.136719 115.875 130.6875 C 110.710938 127.664062 103.582031 128.191406 105.941406 135.773438 C 107.519531 140.851562 110.113281 148.101562 114.84375 151.027344 C 120.152344 154.300781 127.386719 152.140625 132.9375 154.96875 C 138.585938 157.832031 139.8125 166.027344 136.589844 171.191406 C 134.835938 174.015625 137.183594 177.6875 140.40625 176.890625 C 142.308594 176.414062 144.128906 175.378906 145.402344 173.925781 C 148.5625 170.296875 149.402344 165.28125 150.84375 160.695312 C 152.296875 156.109375 155.058594 151.265625 159.757812 150.203125 C 164.785156 149.0625 169.191406 152.660156 173.785156 155.492188 C 174.609375 156 174.9375 157.042969 174.539062 157.925781 C 172.683594 162 170.488281 165.914062 167.988281 169.578125 C 153.167969 191.386719 128.597656 204.40625 102.257812 204.40625 Z M 102.417969 33.636719 L 102.257812 33.636719 C 89.460938 33.636719 77.078125 36.230469 65.460938 41.351562 C 32.324219 55.953125 10.910156 88.785156 10.910156 124.996094 C 10.910156 175.367188 51.886719 216.34375 102.257812 216.34375 C 132.554688 216.34375 160.816406 201.371094 177.859375 176.292969 C 181.15625 171.457031 184 166.246094 186.3125 160.816406 C 191.160156 149.488281 193.617188 137.4375 193.617188 124.996094 C 193.617188 74.714844 152.710938 33.730469 102.417969 33.636719 " fill-opacity="1" fill-rule="nonzero"/></g><g clip-path="url(#b18d07f06e)"><path fill="#000000" d="M 255.777344 72.695312 L 255.777344 158.203125 L 286.714844 158.203125 L 286.714844 172.929688 L 239.304688 172.929688 L 239.304688 72.695312 Z M 344.8125 115.207031 L 344.8125 106.191406 L 360.464844 106.191406 L 360.464844 172.96875 L 344.886719 172.96875 L 344.886719 163.917969 C 342.734375 167.253906 339.765625 169.851562 335.90625 171.707031 C 332.050781 173.671875 328.117188 174.601562 324.222656 174.601562 C 319.140625 174.601562 314.503906 173.671875 310.308594 171.816406 C 306.167969 170.023438 302.558594 167.476562 299.476562 164.175781 C 296.429688 160.910156 294.082031 157.199219 292.429688 153.046875 C 290.726562 148.707031 289.898438 144.203125 289.945312 139.542969 C 289.945312 134.867188 290.796875 130.378906 292.464844 126.1875 C 294.097656 121.980469 296.449219 118.222656 299.515625 114.910156 C 302.566406 111.59375 306.152344 109.019531 310.273438 107.195312 C 314.503906 105.339844 319.175781 104.410156 324.183594 104.410156 C 328.082031 104.410156 331.976562 105.375 335.832031 107.269531 C 339.691406 109.199219 342.660156 111.792969 344.738281 115.132812 Z M 343.402344 147.742188 C 344.386719 145.109375 344.882812 142.390625 344.886719 139.582031 C 344.886719 136.6875 344.367188 134.015625 343.402344 131.417969 C 342.503906 128.898438 341.167969 126.632812 339.394531 124.628906 C 337.625 122.699219 335.546875 121.191406 333.164062 120.105469 C 330.59375 118.925781 327.898438 118.34375 325.074219 118.359375 C 322.109375 118.359375 319.4375 118.992188 317.0625 120.140625 C 314.714844 121.230469 312.660156 122.726562 310.902344 124.628906 C 309.132812 126.625 307.820312 128.890625 306.972656 131.417969 C 306.042969 134.058594 305.585938 136.78125 305.597656 139.582031 C 305.597656 142.4375 306.042969 145.144531 306.972656 147.742188 C 307.863281 150.339844 309.199219 152.5625 310.902344 154.417969 C 312.648438 156.378906 314.699219 157.921875 317.0625 159.054688 C 319.4375 160.167969 322.109375 160.761719 325.074219 160.761719 C 328.042969 160.761719 330.75 160.207031 333.164062 159.054688 C 335.554688 157.945312 337.628906 156.414062 339.394531 154.457031 C 341.15625 152.484375 342.492188 150.261719 343.402344 147.777344 Z M 372.78125 172.96875 L 372.78125 106.191406 L 415.148438 106.191406 L 415.148438 121.550781 L 388.363281 121.550781 L 388.363281 172.929688 L 372.78125 172.929688 Z M 471.722656 115.207031 L 471.722656 106.191406 L 487.304688 106.191406 L 487.304688 172.96875 L 471.722656 172.96875 L 471.722656 163.917969 C 469.644531 167.253906 466.640625 169.851562 462.820312 171.707031 C 458.921875 173.671875 455.027344 174.601562 451.097656 174.601562 C 446.011719 174.601562 441.375 173.671875 437.183594 171.816406 C 433.042969 170.023438 429.433594 167.476562 426.351562 164.175781 C 423.304688 160.910156 420.953125 157.199219 419.304688 153.046875 C 417.613281 148.703125 416.796875 144.203125 416.855469 139.542969 C 416.855469 134.867188 417.671875 130.378906 419.339844 126.1875 C 420.972656 121.980469 423.320312 118.222656 426.390625 114.910156 C 429.441406 111.59375 433.027344 109.019531 437.148438 107.195312 C 441.375 105.339844 446.050781 104.410156 451.058594 104.410156 C 454.953125 104.410156 458.847656 105.375 462.707031 107.269531 C 466.566406 109.199219 469.570312 111.792969 471.609375 115.132812 Z M 470.3125 147.742188 C 471.273438 145.105469 471.742188 142.386719 471.722656 139.582031 C 471.722656 136.6875 471.238281 134.015625 470.3125 131.417969 C 469.425781 128.898438 468.105469 126.636719 466.34375 124.628906 C 464.546875 122.691406 462.445312 121.183594 460.035156 120.105469 C 457.625 118.992188 454.917969 118.359375 451.984375 118.359375 C 449.019531 118.359375 446.347656 118.992188 443.9375 120.140625 C 441.585938 121.230469 439.535156 122.726562 437.777344 124.628906 C 436.007812 126.625 434.695312 128.890625 433.84375 131.417969 C 432.929688 134.0625 432.484375 136.78125 432.511719 139.582031 C 432.511719 142.4375 432.953125 145.144531 433.84375 147.742188 C 434.773438 150.339844 436.070312 152.5625 437.777344 154.417969 C 439.519531 156.378906 441.574219 157.921875 443.9375 159.054688 C 446.347656 160.167969 449.019531 160.761719 451.984375 160.761719 C 454.953125 160.761719 457.625 160.207031 460.074219 159.054688 C 462.492188 157.957031 464.59375 156.421875 466.378906 154.457031 C 468.128906 152.484375 469.453125 150.257812 470.347656 147.777344 Z M 549.921875 106.191406 L 565.765625 106.191406 L 540.167969 172.96875 L 520.503906 172.96875 L 494.90625 106.191406 L 510.675781 106.191406 L 530.335938 157.3125 L 549.921875 106.230469 Z M 599.78125 104.484375 C 621.039062 104.484375 635.542969 123.332031 632.800781 145.367188 L 580.972656 145.367188 C 580.972656 151.082031 586.835938 162.210938 600.636719 162.210938 C 612.507812 162.210938 620.484375 151.824219 620.484375 151.824219 L 631.019531 159.984375 C 621.558594 170 613.84375 174.636719 601.710938 174.636719 C 580.121094 174.636719 565.503906 160.910156 565.503906 139.507812 C 565.503906 120.105469 580.640625 104.410156 599.746094 104.410156 Z M 581.046875 133.792969 L 618.515625 133.792969 C 618.367188 132.496094 616.292969 116.875 599.671875 116.875 C 582.976562 116.875 581.195312 132.53125 581.046875 133.792969 Z M 643 172.855469 L 643 72.695312 L 658.582031 72.695312 L 658.582031 172.929688 L 643 172.929688 Z M 643 172.855469 " fill-opacity="1" fill-rule="nonzero"/></g><g fill="#000000" fill-opacity="1"><g transform="translate(701.717534, 176.635951)"><g><path d="M 136.984375 -106.96875 L 107.421875 0 L 99.953125 0 L 70.703125 -96.296875 L 40.984375 0 L 33.828125 0 L 4.71875 -106.96875 L 12.03125 -106.96875 L 37.640625 -9.59375 L 67.046875 -106.96875 L 74.65625 -106.96875 L 103.765625 -8.984375 L 129.515625 -106.96875 Z M 136.984375 -106.96875 "/></g></g></g><g fill="#000000" fill-opacity="1"><g transform="translate(832.326787, 176.053493)"><g><path d="M 42.21875 1.046875 C 35.550781 1.046875 29.539062 -0.441406 24.1875 -3.421875 C 18.84375 -6.398438 14.660156 -10.671875 11.640625 -16.234375 C 8.617188 -21.804688 7.109375 -28.320312 7.109375 -35.78125 C 7.109375 -43.144531 8.640625 -49.609375 11.703125 -55.171875 C 14.773438 -60.742188 19.003906 -65 24.390625 -67.9375 C 29.785156 -70.875 35.816406 -72.34375 42.484375 -72.34375 C 49.148438 -72.34375 55.15625 -70.875 60.5 -67.9375 C 65.851562 -65 70.039062 -60.765625 73.0625 -55.234375 C 76.09375 -49.710938 77.609375 -43.226562 77.609375 -35.78125 C 77.609375 -28.320312 76.070312 -21.804688 73 -16.234375 C 69.925781 -10.671875 65.691406 -6.398438 60.296875 -3.421875 C 54.910156 -0.441406 48.882812 1.046875 42.21875 1.046875 Z M 42.21875 -4.203125 C 47.394531 -4.203125 52.238281 -5.363281 56.75 -7.6875 C 61.269531 -10.019531 64.890625 -13.550781 67.609375 -18.28125 C 70.328125 -23.019531 71.6875 -28.851562 71.6875 -35.78125 C 71.6875 -42.613281 70.328125 -48.394531 67.609375 -53.125 C 64.890625 -57.863281 61.289062 -61.394531 56.8125 -63.71875 C 52.34375 -66.050781 47.523438 -67.21875 42.359375 -67.21875 C 37.179688 -67.21875 32.378906 -66.050781 27.953125 -63.71875 C 23.523438 -61.394531 19.953125 -57.863281 17.234375 -53.125 C 14.515625 -48.394531 13.15625 -42.613281 13.15625 -35.78125 C 13.15625 -28.851562 14.488281 -23.019531 17.15625 -18.28125 C 19.832031 -13.550781 23.382812 -10.019531 27.8125 -7.6875 C 32.25 -5.363281 37.050781 -4.203125 42.21875 -4.203125 Z M 42.21875 -4.203125 "/></g></g></g><g fill="#000000" fill-opacity="1"><g transform="translate(917.151334, 176.053493)"><g><path d="M 16.703125 -56.6875 C 18.453125 -61.945312 21.5625 -65.957031 26.03125 -68.71875 C 30.507812 -71.488281 36.210938 -72.875 43.140625 -72.875 L 43.140625 -66.6875 L 41.171875 -66.6875 C 34.148438 -66.6875 28.316406 -64.691406 23.671875 -60.703125 C 19.023438 -56.710938 16.703125 -50.203125 16.703125 -41.171875 L 16.703125 0 L 10.78125 0 L 10.78125 -71.421875 L 16.703125 -71.421875 Z M 16.703125 -56.6875 "/></g></g></g><g fill="#000000" fill-opacity="1"><g transform="translate(963.180151, 176.053493)"><g><path d="M 16.703125 -97.328125 L 16.703125 0 L 10.78125 0 L 10.78125 -97.328125 Z M 16.703125 -97.328125 "/></g></g></g><g fill="#000000" fill-opacity="1"><g transform="translate(990.797441, 176.053493)"><g><path d="M 7.109375 -35.78125 C 7.109375 -43.144531 8.578125 -49.585938 11.515625 -55.109375 C 14.453125 -60.628906 18.523438 -64.878906 23.734375 -67.859375 C 28.953125 -70.847656 34.894531 -72.34375 41.5625 -72.34375 C 48.84375 -72.34375 55.15625 -70.519531 60.5 -66.875 C 65.851562 -63.238281 69.625 -58.53125 71.8125 -52.75 L 71.8125 -97.328125 L 77.734375 -97.328125 L 77.734375 0 L 71.8125 0 L 71.8125 -18.9375 C 69.707031 -13.0625 66.023438 -8.257812 60.765625 -4.53125 C 55.503906 -0.8125 49.101562 1.046875 41.5625 1.046875 C 34.894531 1.046875 28.953125 -0.460938 23.734375 -3.484375 C 18.523438 -6.503906 14.453125 -10.800781 11.515625 -16.375 C 8.578125 -21.945312 7.109375 -28.414062 7.109375 -35.78125 Z M 71.8125 -35.78125 C 71.8125 -42 70.519531 -47.5 67.9375 -52.28125 C 65.351562 -57.0625 61.820312 -60.742188 57.34375 -63.328125 C 52.875 -65.921875 47.878906 -67.21875 42.359375 -67.21875 C 36.566406 -67.21875 31.476562 -65.96875 27.09375 -63.46875 C 22.707031 -60.96875 19.285156 -57.347656 16.828125 -52.609375 C 14.378906 -47.878906 13.15625 -42.269531 13.15625 -35.78125 C 13.15625 -29.289062 14.378906 -23.675781 16.828125 -18.9375 C 19.285156 -14.207031 22.726562 -10.566406 27.15625 -8.015625 C 31.582031 -5.472656 36.648438 -4.203125 42.359375 -4.203125 C 47.878906 -4.203125 52.894531 -5.492188 57.40625 -8.078125 C 61.925781 -10.671875 65.457031 -14.359375 68 -19.140625 C 70.539062 -23.921875 71.8125 -29.46875 71.8125 -35.78125 Z M 71.8125 -35.78125 "/></g></g></g></svg>